Coordinates
version=1
nRows=15
nColumns=42
inDegrees=yes

Units are S.I. units (second, meters, Newtons, ...)
If the header above contains a line with 'inDegrees', this indicates whether rotational values are in degrees (yes) or radians (no).

endheader
time	pelvis_tilt	pelvis_list	pelvis_rotation	pelvis_tx	pelvis_ty	pelvis_tz	hip_flexion_r	hip_adduction_r	hip_rotation_r	knee_angle_r	knee_adduction_r	knee_angle_r_beta	ankle_angle_r	subtalar_angle_r	mtp_angle_r	hip_flexion_l	hip_adduction_l	hip_rotation_l	knee_angle_l	knee_adduction_l	knee_angle_l_beta	ankle_angle_l	subtalar_angle_l	mtp_angle_l	lumbar_extension	lumbar_bending	lumbar_rotation	arm_flex_r	arm_add_r	arm_rot_r	elbow_flex_r	pro_sup_r	wrist_flex_r	wrist_dev_r	arm_flex_l	arm_add_l	arm_rot_l	elbow_flex_l	pro_sup_l	wrist_flex_l	wrist_dev_l
      1.07000000	      9.03008939	     -2.99411270	      3.26650691	     -1.01753748	      0.90464500	      0.20945428	     -1.12892549	      4.63827051	    -10.00383499	     24.14876529	      7.22993285	      0.42147546	     19.30484338	     13.00346074	     -7.92962347	     16.11363745	     -3.04398522	     -6.06287709	     71.95165836	     -5.28486609	      1.25579334	      8.05978506	    -16.68406150	     -7.92962347	    -20.03341309	      6.39170159	     -2.97610184	      7.01361179	    -11.97870513	    -10.28935398	     34.96640826	     90.00000001	      0.00000000	      0.00000000	     -6.07610435	     -6.57936548	    -28.21804088	     33.45825147	     90.00000001	      0.00000000	      0.00000000
      1.08000000	      9.26627132	     -2.76071120	      3.07826079	     -1.01056021	      0.90545749	      0.20988771	     -2.17825044	      4.49367837	     -9.33344293	     23.61580371	      7.40509903	      0.41217353	     19.56626277	     12.69384655	     -7.91620194	     16.99514866	     -2.50013817	     -6.14800789	     70.67537400	     -5.35917664	      1.23351798	      8.56732410	    -16.06309314	     -7.91620194	    -20.50059697	      6.11244324	     -2.78644131	      7.74828390	    -12.27702574	     -8.99337866	     35.07759398	     90.00000001	      0.00000000	      0.00000000	     -6.36559524	     -6.41290339	    -28.26720661	     34.18399209	     90.00000001	      0.00000000	      0.00000000
      1.09000000	      9.38479176	     -2.52205561	      2.86297350	     -1.00357523	      0.90604716	      0.21045373	     -3.02468440	      4.38333501	     -8.79537940	     23.20366192	      7.39496110	      0.40498030	     19.71412183	     12.42270032	     -7.89982418	     17.93424032	     -1.99646587	     -6.41398949	     69.13875489	     -5.54221063	      1.20669891	      8.96152307	    -15.29554410	     -7.89982418	    -20.82554501	      5.78723555	     -2.56217650	      8.41750145	    -12.45892943	     -7.97055518	     35.22078355	     90.00000001	      0.00000000	      0.00000000	     -6.58157378	     -6.23509456	    -28.33855670	     34.75265065	     90.00000001	      0.00000000	      0.00000000
      1.10000000	      9.23680749	     -2.40849992	      2.66621135	     -0.99677637	      0.90598561	      0.21106939	     -3.37795375	      4.45179957	     -8.54708091	     23.11162301	      7.12862760	      0.40337392	     19.87054608	     12.35972769	     -7.89315126	     19.19445437	     -1.65009250	     -6.28938053	     67.54963338	     -5.37762508	      1.17896351	      9.22475143	    -14.62691625	     -7.89315126	    -20.84204019	      5.60487975	     -2.27683375	      9.04465163	    -12.52688318	     -7.71609123	     35.41289921	     90.00000001	      0.00000000	      0.00000000	     -6.74660890	     -6.06324313	    -28.30758685	     35.15622062	     90.00000001	      0.00000000	      0.00000000
      1.11000000	      9.53510423	     -2.07374118	      2.36713994	     -0.98947894	      0.90684179	      0.21164331	     -4.51152138	      4.13989511	     -7.96230919	     22.59706957	      7.27160489	      0.39439327	     20.17628268	     12.36600679	     -7.87391845	     19.57049578	     -1.09797196	     -6.95889134	     65.23062791	     -5.74007384	      1.13848923	      9.62201876	    -13.44127198	     -7.87391845	    -21.31640877	      5.15478472	     -2.06712782	      9.80985924	    -12.66993306	     -6.63890866	     35.29943635	     90.00000001	      0.00000000	      0.00000000	     -7.04145894	     -5.85292533	    -28.51064906	     35.88970748	     90.00000001	      0.00000000	      0.00000000
      1.12000000	      9.51573180	     -1.89789796	      2.07073873	     -0.98245844	      0.90692143	      0.21227718	     -5.07652082	      4.04112288	     -7.62089776	     22.43518924	      7.17858609	      0.39156792	     20.53945358	     12.38763849	     -7.86246174	     20.35088855	     -0.73663013	     -6.93934372	     62.96520106	     -5.51427980	      1.09895007	      9.92538919	    -12.49805340	     -7.86246174	    -21.44776202	      4.87809208	     -1.79744854	     10.54348484	    -12.70919989	     -6.19142139	     35.24957559	     90.00000001	      0.00000000	      0.00000000	     -7.31316526	     -5.62706730	    -28.56687250	     36.44089902	     90.00000001	      0.00000000	      0.00000000
      1.13000000	      9.54134649	     -1.68609995	      1.78181195	     -0.97517700	      0.90704209	      0.21285024	     -5.78003395	      3.87642619	     -7.31629320	     22.14180304	      7.11261389	      0.38644737	     20.74406510	     12.60570508	     -7.84677399	     20.93976767	     -0.34205846	     -7.35476755	     60.37410444	     -5.64949101	      1.05372691	     10.17325734	    -11.17699789	     -7.84677399	    -21.58272459	      4.56787692	     -1.58500796	     11.20428542	    -12.76143890	     -5.56020391	     35.22769644	     90.00000001	      0.00000000	      0.00000000	     -7.58249201	     -5.38936290	    -28.71669482	     36.94692447	     90.00000001	      0.00000000	      0.00000000
      1.14000000	      9.29862341	     -1.65787469	      1.52038116	     -0.96818540	      0.90649081	      0.21352861	     -5.99272974	      4.01477357	     -7.06541906	     22.12084579	      6.81878646	      0.38608159	     20.96159111	     12.64874284	     -7.84003539	     21.86607461	     -0.19630129	     -7.10617282	     57.89217840	     -5.23713370	      1.01040912	     10.25004957	    -10.34014391	     -7.84003539	    -21.43500658	      4.44842451	     -1.28194429	     11.79529048	    -12.77981844	     -5.30460323	     35.29126591	     90.00000001	      0.00000000	      0.00000000	     -7.78435712	     -5.17692670	    -28.71424123	     37.34044859	     90.00000001	      0.00000000	      0.00000000
      1.15000000	      9.49086527	     -1.39174426	      1.22368085	     -0.96062998	      0.90674889	      0.21393119	     -6.97927478	      3.62868761	     -6.87185903	     21.74161346	      6.98664086	      0.37946274	     21.31058263	     13.13400049	     -7.82566705	     21.95269587	      0.24404099	     -7.70524985	     54.73917129	     -5.46793545	      0.95537877	     10.64051692	     -8.53488209	     -7.82566705	    -21.71957273	      4.08121453	     -1.15759055	     12.50913199	    -12.78596974	     -4.59179545	     35.08401622	     90.00000001	      0.00000000	      0.00000000	     -8.08856104	     -4.91107265	    -28.96063881	     37.83327168	     90.00000001	      0.00000000	      0.00000000
      1.16000000	      9.42584053	     -1.31198690	      0.95907330	     -0.95333635	      0.90636707	      0.21440455	     -7.47431666	      3.57107173	     -6.72267108	     21.67049631	      6.88709296	      0.37822151	     21.70036619	     13.36271736	     -7.81602870	     22.36434872	      0.35666482	     -7.64290102	     51.76889524	     -5.02801242	      0.90353767	     10.86547363	     -7.13722275	     -7.81602870	    -21.73686146	      3.92978991	     -0.93603866	     13.11594190	    -12.79960384	     -4.20246055	     34.99231591	     90.00000001	      0.00000000	      0.00000000	     -8.27487762	     -4.67040523	    -29.02992801	     38.16261214	     90.00000001	      0.00000000	      0.00000000
      1.17000000	      9.39022883	     -1.21540758	      0.70348931	     -0.94586357	      0.90594461	      0.21474940	     -8.10308655	      3.42167200	     -6.64614858	     21.43745763	      6.89982921	      0.37415422	     21.98159639	     13.80131008	     -7.80568091	     22.62966602	      0.59958256	     -7.84616491	     48.63507780	     -4.99004421	      0.84884224	     11.12898259	     -5.43039585	     -7.80568091	    -21.75138488	      3.76555519	     -0.76515361	     13.71600635	    -12.77869968	     -3.75096733	     34.92409974	     90.00000001	      0.00000000	      0.00000000	     -8.49294142	     -4.40864643	    -29.15458544	     38.45378084	     90.00000001	      0.00000000	      0.00000000
      1.18000000	      9.36094557	     -1.13082346	      0.46695714	     -0.93820495	      0.90539645	      0.21496546	     -8.78142824	      3.25673183	     -6.63953036	     21.16870586	      6.92100871	      0.36946362	     22.24096504	     14.43327919	     -7.79308933	     22.82962726	      0.80371662	     -8.35523209	     45.46921738	     -5.13985928	      0.79358755	     11.50159524	     -3.28487351	     -7.79308933	    -21.74753844	      3.63901518	     -0.64823247	     14.24988778	    -12.77485819	     -3.28012267	     34.91874241	     90.00000001	      0.00000000	      0.00000000	     -8.71805679	     -4.14309854	    -29.30058165	     38.67651306	     90.00000001	      0.00000000	      0.00000000
      1.19000000	      9.26602653	     -1.11624435	      0.26457972	     -0.93064466	      0.90459806	      0.21513358	     -9.34218041	      3.16638481	     -6.62113321	     20.99192796	      6.95324558	      0.36637826	     22.56417714	     14.83114551	     -7.78301404	     23.07595221	      0.87751700	     -8.51883004	     42.40098431	     -4.95112154	      0.74003678	     11.72752118	     -1.48864127	     -7.78301404	    -21.68099990	      3.60104439	     -0.52428146	     14.75911646	    -12.76387698	     -2.92438524	     34.89665498	     90.00000001	      0.00000000	      0.00000000	     -8.89460226	     -3.88957978	    -29.35721056	     38.79800729	     90.00000001	      0.00000000	      0.00000000
      1.20000000	      9.24536824	     -1.05737681	      0.06027215	     -0.92291622	      0.90385195	      0.21523843	    -10.04548547	      2.99141692	     -6.57816496	     20.71860553	      7.05821894	      0.36160788	     22.84664558	     15.32090912	     -7.77237973	     23.14013717	      1.00002072	     -8.97030718	     39.31300669	     -4.93861465	      0.68614141	     11.94338051	      0.61177264	     -7.77237973	    -21.67946219	      3.51487437	     -0.46450116	     15.25487941	    -12.71741828	     -2.53612857	     34.91007980	     90.00000001	      0.00000000	      0.00000000	     -9.07895314	     -3.68303818	    -29.44663916	     38.85293575	     90.00000001	      0.00000000	      0.00000000
      1.21000000	      9.24164414	     -1.01593811	     -0.13283520	     -0.91504211	      0.90303077	      0.21522156	    -10.80519710	      2.80972015	     -6.50805670	     20.39658407	      7.19960919	      0.35598755	     23.07255248	     15.84360114	     -7.75978742	     23.16669098	      1.09630526	     -9.74177682	     36.37002908	     -5.09120805	      0.63477676	     12.19626998	      3.06376915	     -7.75978742	    -21.67686506	      3.47065709	     -0.41485006	     15.68776398	    -12.68660508	     -2.14630981	     34.97513954	     90.00000001	      0.00000000	      0.00000000	     -9.23293338	     -3.45809894	    -29.52024872	     38.87489777	     90.00000001	      0.00000000	      0.00000000
